# 
# Generated by Sweet Home 3D - s?b sep 11 21:02:54 CDT 2021
# http://www.sweethome3d.com/
# 
mtllib Muro_Antiguo.mtl
g ground_1
usemtl ground_1
v -11.0 0.0 -2.4398193
v -11.0 0.0 1997.5602
v 14.0 0.0 1997.5602
v 14.0 0.0 -2.4398193
vn 0.0 1.0 0.0
vn 0.0 0.0 0.0
f 1//1 2//1 3//1
f 1//1 3//1 4//1
g wall_1_2
usemtl wall_1_2
v 1.5 0.0 -2.4398193
v 1.5 0.0 1997.5602
vn 0.0 -1.0 0.0
f 4//3 3//3 6//3
f 4//3 6//3 5//3
g wall_1_3
usemtl wall_1_2
f 5//3 6//3 2//3
f 5//3 2//3 1//3
g wall_1_4
usemtl wall_1_2
v 14.0 250.0 1997.5602
v 1.5 250.0 1997.5602
v 14.0 250.0 -2.4398193
v 1.5 250.0 -2.4398193
vt 0.0 0.0 0
vt 0.0375 0.0 0
vt 0.0375 1.0 0
vt 0.0 1.0 0
vt -6.0000005 0.0 0
vt -6.0000005 1.0 0
vn 0.0 0.0 1.0
vn 1.0 0.0 0.0
vn 0.0 0.0 -1.0
f 6/1/4 3/2/4 7/3/4 8/4/4
f 3/5/5 4/1/5 9/4/5 7/6/5
f 4/1/6 5/2/6 10/3/6 9/4/6
g wall_1_5
usemtl wall_1_2
v -11.0 250.0 1997.5602
v -11.0 250.0 -2.4398193
vt 6.0000005 0.0 0
vt 6.0000005 1.0 0
vn -1.0 0.0 0.0
f 1/1/7 2/7/7 11/8/7 12/4/7
f 2/1/4 6/2/4 8/3/4 11/4/4
f 5/1/6 1/2/6 12/3/6 10/4/6
g wall_1_6
usemtl wall_1_2
f 10//1 8//1 7//1
f 10//1 7//1 9//1
g wall_1_7
usemtl wall_1_2
f 12//1 11//1 8//1
f 12//1 8//1 10//1
